<svg xmlns="http://www.w3.org/2000/svg" xmlns:xlink="http://www.w3.org/1999/xlink" viewBox="0 0 63.7 99.77"><defs><style>.cls-1{isolation:isolate;}.cls-2{fill:url(#linear-gradient);}.cls-3{fill:#7e4545;}.cls-11,.cls-18,.cls-3,.cls-4,.cls-5{mix-blend-mode:multiply;}.cls-3,.cls-5{opacity:0.24;}.cls-4{fill:#ba8d72;opacity:0.12;}.cls-5{fill:#8c5959;}.cls-6{fill:#e3ac85;}.cls-7{fill:#4c3023;}.cls-8{fill:#e9d3bc;}.cls-9{fill:#d0a47d;}.cls-10{fill:#65342a;}.cls-11{fill:#996e4e;}.cls-11,.cls-18{opacity:0.32;}.cls-12,.cls-13,.cls-14,.cls-15,.cls-16,.cls-17{opacity:0.55;}.cls-12{fill:url(#linear-gradient-2);}.cls-13{fill:url(#linear-gradient-3);}.cls-14{fill:url(#linear-gradient-4);}.cls-15{fill:url(#linear-gradient-5);}.cls-16{fill:url(#linear-gradient-6);}.cls-17{fill:url(#linear-gradient-7);}.cls-18{fill:#cdad9a;}</style><linearGradient id="linear-gradient" x1="34.23" y1="17.51" x2="24.55" y2="101.07" gradientUnits="userSpaceOnUse"><stop offset="0" stop-color="#9d613c"/><stop offset="1" stop-color="#94532b"/></linearGradient><linearGradient id="linear-gradient-2" x1="7.44" y1="25.29" x2="7.44" y2="85.74" gradientUnits="userSpaceOnUse"><stop offset="0" stop-color="#a16744"/><stop offset="1" stop-color="#9d613c"/></linearGradient><linearGradient id="linear-gradient-3" x1="14.82" y1="25.3" x2="14.82" y2="85.74" xlink:href="#linear-gradient-2"/><linearGradient id="linear-gradient-4" x1="25.88" y1="25.3" x2="25.88" y2="85.74" xlink:href="#linear-gradient-2"/><linearGradient id="linear-gradient-5" x1="36.4" y1="25.25" x2="36.4" y2="85.69" xlink:href="#linear-gradient-2"/><linearGradient id="linear-gradient-6" x1="48.33" y1="25.3" x2="48.33" y2="85.74" xlink:href="#linear-gradient-2"/><linearGradient id="linear-gradient-7" x1="56.34" y1="25.3" x2="56.34" y2="85.74" xlink:href="#linear-gradient-2"/></defs><g class="cls-1"><g id="Layer_2" data-name="Layer 2"><g id="Layer_1-2" data-name="Layer 1"><path class="cls-2" d="M1.49,92.32A3.79,3.79,0,0,0,4,95.9c.94.31,1.9.56,2.84.78,3,.7,13.5,2.36,17.27,2.74a50.56,50.56,0,0,0,9.42.23C39.28,99.29,49,99,55.37,97.08a6.35,6.35,0,0,0,4.48-6.19c-.26-10.31,1.47-25.78,1.42-31.37-.14-14.76.56-31.26,1.86-46.16a35.37,35.37,0,0,1,.57-3.87c-4.56-.08-9.11,1.94-13.91,1.74C43.92,11,37.85,9.59,32,8.51,21.84,6.62,10.82,10,1.14,8.07.23,28.55-.35,38.33.23,51.94.73,63.43,1.49,85.06,1.49,92.32Z"/><path class="cls-3" d="M12.39,77.88c0-4.61,1.47-9,1.44-13.59,0-3.83-.15-7.66-.34-11.49-.41-8.36.83-16.58.1-24.94a117.82,117.82,0,0,1-.89-12.58c.05-2.25.61-4.53.82-6.77A48,48,0,0,1,1.14,8.07C.23,28.55-.35,38.33.23,51.94c.5,11.49,1.26,33.12,1.26,40.38A3.79,3.79,0,0,0,4,95.9c.94.31,1.9.56,2.84.78,1.37.32,4.34.85,7.51,1.36C14,91.3,12.44,84.67,12.39,77.88Z"/><path class="cls-4" d="M39.54,95.78c-.62-1.71-1.25-3.42-1.84-5.14a16.2,16.2,0,0,1-.69-8.8c.79-4.48,1.88-9.24,1.91-13.79,0-4.88-1.43-9.54-2.23-14.31-1.44-8.6.94-17.4.57-26C37,21.76,35.2,15.23,35.57,9.19L32,8.51A47.39,47.39,0,0,0,21,8c-.05,2.66-.16,5.32-.21,8s-.13,5.47.09,8.18c.29,3.58,1.61,6.25,3.1,9.4C27.5,41,22.93,47.46,21.72,54.7c-1.89,11.29-.35,22.53,1.9,33.65.76,3.74,1.54,7.5,2.43,11.24a46.39,46.39,0,0,0,7.5.06c1.82-.11,4-.22,6.43-.37A7.7,7.7,0,0,0,39.54,95.78Z"/><path class="cls-5" d="M44.7,97a10.77,10.77,0,0,1,.62-8.42c3-5.71,2.45-10.67,2.79-16.85.28-5.15,1.11-10.29,1.18-15.46C49.37,50,48,44.94,46.15,39.12c-1.34-4.18-1.62-8.26-1.93-12.62A119.74,119.74,0,0,1,44,10.67c-4-.56-7.94-1.41-11.83-2.13-.9,8.36.39,17.13-.08,25.49-.53,9.61,5.12,18.12,4.42,27.6-.74,10-4.74,19.74-4,29.94a35.13,35.13,0,0,0,1.62,8.05c3.06-.18,7.1-.36,11.14-.76C45.08,98.25,44.88,97.63,44.7,97Z"/><path class="cls-5" d="M63.7,9.49c-3.17-.05-6.34.9-9.59,1.42-1.37,3.9,0,8.28.45,12.43.59,4.95-3.33,20.94-.72,35.66.95,5.31,2.92,16.45,1.17,21.7-1.7,5.1-2.5,10.16-3.54,15.42-.12.64-.25,1.29-.37,1.95a38.44,38.44,0,0,0,4.27-1,6.35,6.35,0,0,0,4.48-6.19c-.26-10.31,1.47-25.78,1.42-31.37-.14-14.76.56-31.26,1.86-46.16A35.37,35.37,0,0,1,63.7,9.49Z"/><path class="cls-6" d="M62.85,7.66C49.29-2.82,31-.16,14.62,1.9c-4.74.59-13,3.93-13.48,6.17C1,10.56,4.91,12.69,7.62,13.73c5.63,2.17,13.1,1.51,18.55,3,8.36,2.23,18.83,1.39,27.08-.86,3.65-1,7.93-1.89,10.1-5.22A2.24,2.24,0,0,0,62.85,7.66Z"/><path class="cls-7" d="M59.54,7.63l-.9-.55C56.85,6,55.17,4.55,53.18,3.89c-1.42-.47-2.92-.3-4.36-.61S45.92,2.36,44.44,2c-1.16-.26-2.31-.55-3.46-.81a14.68,14.68,0,0,0-3.69-.1c-2.18.1-4.35.12-6.54.12-1,0-2,.17-3,.16s-1.9,0-2.84.06c-1.75.16-3.43.5-5.17.83-1.55.29-3,1-4.6,1.19a16.17,16.17,0,0,0-4.19.74A17,17,0,0,1,9.24,5,21.75,21.75,0,0,0,5.33,6.49c-.74.39-2.27,1-2.2,2.18.09,1.46,1.34,2.08,2.41,2.58a21.31,21.31,0,0,0,5,2c1.28.26,2.55.54,3.83.72,3.68.51,7.29,1.23,10.94,1.95a26.66,26.66,0,0,0,4.18.41c1.14,0,2.24.22,3.37.34s2.08.21,3.11.26c.78,0,1.55.1,2.33.11a7,7,0,0,0,1.64-.3c1.52-.31,3.08,0,4.6-.47a15.23,15.23,0,0,1,3-.48,21.33,21.33,0,0,0,6.26-.93c1.46-.57,2.88-1.22,4.34-1.77,1.09-.41,3.29-.86,3.64-2.3a2.49,2.49,0,0,0-.72-1.94A6.89,6.89,0,0,0,59.54,7.63Z"/><path class="cls-8" d="M60.56,9.38c-.35-1.07-1.69-1.66-2.51-2.15A23,23,0,0,0,53.8,5a16.07,16.07,0,0,0-2.55-.62C48.93,4,46.65,3.5,44.35,3A31.24,31.24,0,0,0,37.1,1.88a53.69,53.69,0,0,0-6.22.1,29,29,0,0,1-4.06-.08,42,42,0,0,0-4.49.16,16.17,16.17,0,0,0-2.52.6c-1.12.3-2.26.47-3.39.73-3.61.83-7.73,1.38-10.79,3.67A2.23,2.23,0,0,0,4.46,9c.09,1.24,1.22,1.58,2.17,2a21.55,21.55,0,0,0,3.31,1,19.86,19.86,0,0,1,3.17.57,11.68,11.68,0,0,0,2.77.91c1,.15,2.11.19,3.15.4,2.51.52,5,1,7.58,1.33,1.71.23,3.46.16,5.19.24,2.48.1,4.94.2,7.43.2a25,25,0,0,0,6.56-.62c1.22-.32,2.44-.55,3.68-.8a20.2,20.2,0,0,1,4-.46A14.39,14.39,0,0,0,58,12.41c1-.39,2.58-1,2.63-2.43A1.71,1.71,0,0,0,60.56,9.38Z"/><path class="cls-9" d="M57.57,8.88a15.74,15.74,0,0,0-4.43-2.49C49.47,4.81,45.41,4.43,41.5,4c-2.41-.3-4.79-.48-7.19-.6-1.23-.06-2.5-.06-3.73,0-3.24.16-6.46.33-9.7.65a38.22,38.22,0,0,0-6.56,1.58A18.32,18.32,0,0,0,9.48,7.34C9,7.64,8.17,7.85,8,8.46c-.48,1.59,3.8,2.24,4.66,2.63a18.91,18.91,0,0,0,5.05,1.32c4.26.6,8.56.55,12.8,1.16a34.74,34.74,0,0,0,5.18.46c1.06,0,2.13-.08,3.18-.06a23,23,0,0,0,3.32,0c3.25-.38,6.49-.79,9.72-1.15.63-.07,1.25-.27,1.87-.4a6.5,6.5,0,0,0,2.31-.85c.64-.37,1.57-.3,2-1.08C58.36,10,58.1,9.41,57.57,8.88Z"/><path class="cls-8" d="M54.42,8A38.78,38.78,0,0,0,44.24,5.6c-3.09-.35-6.21-.36-9.3-.72a22.51,22.51,0,0,0-3.58-.08c-2,.1-4,.14-6,.24a43.36,43.36,0,0,0-6.51.8,25.52,25.52,0,0,0-5,1.29c-.68.31-2.21,1.17-1.09,2A3.64,3.64,0,0,0,14,9.54a16.86,16.86,0,0,1,1.66.66c.71.27,1.45.4,2.17.62a18,18,0,0,0,5.29.32c2.28,0,4.58.47,6.85.67s4.85.11,7.25.11,4.8-.07,7.17-.17,4.47.28,6.69.17a8.15,8.15,0,0,0,3-.61c.63-.28,2.12-.7,2.25-1.56s-1.18-1.42-1.79-1.66Z"/><path class="cls-9" d="M48.89,7.47c-1.1-.26-2.23-.37-3.34-.61a18.61,18.61,0,0,0-3.86-.47c-2.27,0-4.48-.22-6.72-.45-1.85-.19-3.7-.19-5.54-.26-1.61-.06-3.26.36-4.88.43a26.85,26.85,0,0,0-4,.41c-1.55.29-3.62.18-4.95,1.2-1.13.86.75,1.76,1.45,1.92a18.36,18.36,0,0,0,4.8-.06,14.12,14.12,0,0,1,3.86.6,23.14,23.14,0,0,0,5.25.57c1.53,0,3-.06,4.53-.05a14.92,14.92,0,0,0,2.21-.23,27.35,27.35,0,0,1,4.34.15c1.56,0,3.11,0,4.67.08a13.87,13.87,0,0,0,3-.21A13.64,13.64,0,0,0,52,10.15c.56-.2,1-.7.53-1.3C51.77,7.84,50,7.74,48.89,7.47Z"/><path class="cls-7" d="M14,15c-.33.79,1.07,7.72,1.21,11.84.14,4.37,1.68,15.84,1.74,20.08.74-6.9-.61-14.09.11-21.14a26.33,26.33,0,0,0-.27-6.3,12,12,0,0,1,.47-4s.52-.16,1.16-.4A34,34,0,0,0,14,15Z"/><path class="cls-7" d="M40.9,16.88c.47.36,1,.61,1,1,.25,1.12-.46,2.19-.53,3.6-.1,2.31-.64,10.7-.56,12.7.09,2.35-.54,5.05-.19,7.28,0,0,2.9-12.91,2.81-15.6A32.75,32.75,0,0,1,44,19.49a5.91,5.91,0,0,0,.25-1.91S41.9,17.1,40.9,16.88Z"/><path class="cls-7" d="M55.86,14.29c.23,0,.77.62.77.62,1.2,1.76-.05,9,.15,10.43.65-1.75.6-4.27.72-6.18.1-1.57.35-3.15.39-4.67A6.85,6.85,0,0,0,55.86,14.29Z"/><path class="cls-7" d="M28.55,17.24a5.92,5.92,0,0,0,.16,2.58,30,30,0,0,1,.16,4.46c0,3.21-.34,5.8.35,8.85,0,0,.33-6.91.57-8.88.16-1.36.74-2.53.76-3.94a25,25,0,0,1-.11-2.75l.71-.74A23.22,23.22,0,0,0,28.55,17.24Z"/><path class="cls-7" d="M7.07,12.34a14.28,14.28,0,0,1-1.95.24c-.63,1.93.66,13.81.69,16.71,0,1.47-.24,3.63.25,4.7.81-4-.38-19.91-.26-21.06A4.83,4.83,0,0,0,7.07,12.34Z"/><path class="cls-8" d="M47.11,8.22c-7.43-1.34-14.94-1-22.49-1-.72,0-4-.44-3.94.66.06.78,2.42.93,3.11,1a74.5,74.5,0,0,0,10.57.21c3,0,6,.06,9,.26,1.11.08,4.86.7,5.61-.35C48.44,8.21,48,8.38,47.11,8.22Z"/><path class="cls-7" d="M31.26,7.4a3.85,3.85,0,0,1-2.36-.76,11.26,11.26,0,0,1,3.91.65c1.35.33,3.14-.21,4.61-.23-.72.36-1.46.72-2.21,1,1.66-.22,3.4.86,5.08.89-2.41-.08-4.81.62-7.2.36a20.81,20.81,0,0,0-7.25.31,23.28,23.28,0,0,1,3.24-1.23C29.79,8.17,30.57,7.42,31.26,7.4Z"/><path class="cls-10" d="M57.81,93c-1.13,1.48-3.72,2.3-5.63,2.75a15.4,15.4,0,0,1-2.65-2.19c-.53-2-.61-4.87-1.46-6.62-1.38,2.19-.9,5.36-2.09,7.76a5.11,5.11,0,0,1-3.79,2.67c-2.78.44-6,.65-6.73-2.33-.55-2.21.79-5.13,1-7.34a16.23,16.23,0,0,1-1.36,3c-.78,1.27-2,1.69-3.25,2.56-2.26,1.59-3,4.2-6.15,4.17-5.79-.06-3.39-7-3.68-10.79-1.2,2.3-.59,4.84-3.07,6.34-1,.6-1.91.67-2.85,1.44-.72.6-1.68,1.88-2.69,2-1.52.14-4.19-2.53-4.75-3.81a20.43,20.43,0,0,1-1.78-8c-.91,2.07-.2,5.27-1.68,7C3,94.43,1.69,87.59,1.71,86.13a2.19,2.19,0,0,0-.3.16c.06,2.37.1,4.45.11,6.09a3.76,3.76,0,0,0,2.54,3.53c.92.31,1.87.55,2.8.77,3,.7,13.5,2.36,17.27,2.74a50.56,50.56,0,0,0,9.42.23C39.28,99.29,49,99,55.38,97.08a6.34,6.34,0,0,0,4.47-6.18q0-.89,0-1.8c0-.3,0-.53,0-.65C58.68,89.63,58.78,91.76,57.81,93Z"/><path class="cls-11" d="M9.05,31.55A136.39,136.39,0,0,0,6.53,63.31c.18,5,1.8,9.58,2.28,14.42.39,3.78-.79,9,2.15,11.78,1.46-2.18,1.06-5.91,2.93-7.88,2.39,2.29,2.13,6.55,4,9.05,3.85-4.59,1.39-17.85.51-23.73S15,55.59,13.31,49.8C5.22,50.76,13.84,36.16,9.05,31.55Z"/><path class="cls-11" d="M37.88,58A42.59,42.59,0,0,1,36,44.82c0-.17-.06-.34-.1-.52-.53-2.33-1.63-4.63-1.8-7-.26-3.71,1.13-7.87.85-11.69-.35,1.49-.63,2.84-.84,3.39-3.45,9.11-6.5,22.85-5.5,32.4.3,2.86,1.92,5.25,2.58,8,.84,3.46.22,6.71.07,10.08-.18,3.86-.87,9.56.49,13C36.68,81.89,41.47,70.19,37.88,58Z"/><path class="cls-11" d="M49.88,29.39c-.26,4.28-2.28,8.37-2.61,12.71a89.31,89.31,0,0,0-.21,14.24c.77,9.31,1.07,19.14-.31,28,3.17-3.24,5-10.76,5.6-15.29a99.6,99.6,0,0,1-.94,13.48c-.62,4.1.44,7.58.15,11.48,3.71-1.61,4.23-13.84,4.92-17.87a155.77,155.77,0,0,0,1.59-19.75c-2.36.25-4.27,3-6.37,4.3.33-3.1-1.12-5.76-1-8.91s1.3-6.1,1.76-9.2c.81-5.37.52-11.26.76-17-2.76,4.18-.56,12-3.43,14.84C48.26,37.28,50.73,32.85,49.88,29.39Z"/><path class="cls-11" d="M23.25,40.93c.34,5-2.46,9.83-2.68,14.7-.19,4.18,1.68,8.34,2.88,12.21A32.3,32.3,0,0,1,25.1,80.1C24.74,84.65,22.19,89.48,23,94c5.21-8.84,4.92-18.33,2.14-27.83a44.06,44.06,0,0,1-1.36-14.33A104.64,104.64,0,0,0,23.25,40.93Z"/><path class="cls-11" d="M42.93,99.22c0-1.12-.16-2.24-.25-3.22-.56-5.57,1.26-13.55-.58-18.94-.39,4-2.48,7.61-3.15,11.52-.61,3.61-1.25,7.26-1.64,10.9C39.06,99.4,41,99.33,42.93,99.22Z"/><path class="cls-11" d="M2.43,71.31A10,10,0,0,0,1,73.63c.26,7.94.45,15.08.45,18.69A3.78,3.78,0,0,0,4,95.9h0c-.43-4.17-1.2-8.44-.92-12.48S5.46,75.07,2.43,71.31Z"/><path class="cls-11" d="M62.32,24a42.94,42.94,0,0,0-2.86,10.09C58.7,38.55,56.62,43.55,57.2,48a4.59,4.59,0,0,1,4.09,2.16C61.4,41.58,61.76,32.69,62.32,24Z"/><path class="cls-11" d="M.22,29.75C0,37.68-.1,44.19.23,51.94.31,53.72.39,55.77.48,58c3.67-.28,2-3.41,1.93-5.76C2.26,48.41,4,33.9.22,29.75Z"/><path class="cls-12" d="M6.22,77.86c-.17-8.25-.57-16.47-1.09-24.8-.3-4.78-.3-9.68-.6-14.44-.29-4.45,1.27-8.53.93-12.93.43,5.81,1.72,11.07,1.83,16.93.1,5.15,0,10.34.29,15.4.56,9.15,2.66,17.93,2.81,26.77a30.59,30.59,0,0,0-2.78-10.2C7.52,75.43,6.37,77.29,6.22,77.86Z"/><path class="cls-13" d="M16.92,76.51C14,68,13.34,58.57,12.45,49.28c-.45-4.71-1.84-14.43.26-18.57,2,8.5,1.1,18.27,2.28,26.7.76,5.4,4.66,14.68,2.33,19.75C17.43,76.9,16.71,76.68,16.92,76.51Z"/><path class="cls-14" d="M25.66,86.88a67.59,67.59,0,0,0-3-22.37c-2.07-6.66-1.5-10.36-.48-17.27,1.29-8.86.32-19,2.9-27.42.08,14.17.09,28.6,1.42,42,4.57-1.09,3.43,7.77,3.19,10.67-.38,4.8,1.11,9,.84,13.74-3.93-3.54-1.68-14.28-4.35-19.25C24.05,72.27,30.07,83.52,25.66,86.88Z"/><path class="cls-15" d="M38.35,78.87c-1.21-5.05-1.25-11.18-2-16.63S34.69,51.33,34,45.82c-.59-4.77-.77-17.6,3.39-20.57C38,30.52,36,36,36.18,41.13c.14,4.51,1.49,8.76,2.31,13C40.16,62.77,37.91,71.18,38.35,78.87Z"/><path class="cls-16" d="M49.24,66.31c.33-4.42-1.7-9.15-2.18-13.59A117.17,117.17,0,0,1,46,40c0-6.43.56-13,2.53-19.12-3.29,3.23-3.44,12.59-3.71,17.33-.29,5.17.46,10.19.44,15.23,0,4.39,1.08,8.13,1,12.47,0,2.85-1.48,12,.12,13.64,1.1-1.88.63-5.26,2.65-6,.73,3.77.75,7.64,1.66,11.35,2-2.51.76-10.17.45-13.7C51,68.45,49.08,68.4,49.24,66.31Z"/><path class="cls-17" d="M56.47,25.22c-2.63,5.71-1.22,10-1.19,16,0,4.35-.67,8.12-.24,12.37.55,5.39.45,10.69.61,16.13,3.39-3.8,1.93-17.83,1.29-23.25C56.28,40.82,54.5,31.07,56.47,25.22Z"/><path class="cls-18" d="M60.17,78.35a20.55,20.55,0,0,1-4.81-2.18c-5.48-3.49-8.06-11.12-14.13-13.8-3.49-1.54-4.34.68-6.8,2.56a10.17,10.17,0,0,1-7.06,2,15.38,15.38,0,0,1-8.1-3.53c-1.62.77-3.12,2-5,3a5.1,5.1,0,0,1-5.69-.84C4.85,62.57,3,58.13.33,54.29c.49,11.87,1.16,31.24,1.16,38A3.78,3.78,0,0,0,4,95.9c.93.31,1.89.56,2.83.78,3,.7,13.5,2.36,17.27,2.74a50.56,50.56,0,0,0,9.42.23C39.28,99.29,49,99,55.37,97.08a6.35,6.35,0,0,0,4.48-6.2C59.75,87.14,59.92,82.73,60.17,78.35Z"/></g></g></g></svg>