<svg xmlns="http://www.w3.org/2000/svg" viewBox="0 0 49.26 15.43"><defs><style>.cls-1{fill:#437a02;}.cls-2{fill:#376400;}.cls-3{opacity:0.25;}.cls-4{fill:#6aa21d;}.cls-5,.cls-7{fill:#1e4703;}.cls-6{fill:#acdb5c;opacity:0.24;}.cls-7{opacity:0.41;}.cls-8{fill:#d0ff80;opacity:0.23;}.cls-9{fill:#97c151;}.cls-10{fill:#133000;}.cls-11{fill:#b6d69a;}</style></defs><g id="Layer_2" data-name="Layer 2"><g id="Layer_1-2" data-name="Layer 1"><g id="pepino"><path class="cls-1" d="M2.81,8a5.17,5.17,0,0,0-2.63.82c.24.33.4.57.4.57.5-.28,1.78-.81,2.32-.15a4.83,4.83,0,0,0,2.78,4.21c2.48,1.28,8.41,2.17,18.59,1.46s16.27-1.74,19.94-3.46,5.2-3,4.63-5.32S46.05,1.65,39.52.83A114.58,114.58,0,0,0,17.72.51C12.27,1.08,7.52,2,5.3,3.93S3,7.11,2.81,8Z"/><path class="cls-2" d="M10.6,1.7C7.52,2.89,6.07,4.09,6.24,4.78s4,.34,5.73.08C9.15,5.46,5.63,7.6,6.15,8s2.48.73,7.27,1a12.89,12.89,0,0,0-3.5,1.37c-1,.77-.6,1.71,4.79,2.48s23.77-1,27.88-2.48,6.58-2.91,6.07-4.88c.51,1.37,1.28,2.48-1.88,4.79s-9.49,3.34-19.33,4.36S9,15.38,5.13,13.41,2.65,5.8,4.27,4.61A16,16,0,0,1,10.6,1.7Z"/><g class="cls-3"><path class="cls-4" d="M46.23,3.8a15.69,15.69,0,0,0-5-1.83c-1.69-.4-3.41-.69-5.13-.92A61.7,61.7,0,0,0,25.44.63,74.11,74.11,0,0,0,15.05,1.82C13.32,2.14,11.6,2.5,9.91,3a18.47,18.47,0,0,0-4.7,1.7.24.24,0,0,0,.11.44,31.26,31.26,0,0,0,4.69-1c1.64-.38,3.29-.74,4.94-1A78.88,78.88,0,0,1,25.44,1.89a66.58,66.58,0,0,1,10.28.32A50.46,50.46,0,0,1,40.77,3a47,47,0,0,0,5.38,1.09C46.31,4.1,46.35,3.87,46.23,3.8Z"/><path class="cls-4" d="M45.89,6.71a20.37,20.37,0,0,0-5-1.08,53.12,53.12,0,0,0-5.49-.39c-3.7-.07-7.39,0-11.09.09-3.35.12-6.69.33-10,.59-2.79.22-5.78.33-8.25,1.76a.17.17,0,0,0,.13.3,36.63,36.63,0,0,1,8.5-.55c3.3.08,6.59-.22,9.88-.35,3.62-.13,7.24-.2,10.86-.19,1.76,0,3.51.07,5.26.17a25.49,25.49,0,0,0,5.24,0C46.1,7,46,6.77,45.89,6.71Z"/><path class="cls-4" d="M45.37,8.87h-4c-1.54,0-3.1.18-4.63.3-3.32.24-6.64.68-9.95,1s-6.47.61-9.71.66a52.58,52.58,0,0,0-9.63.58c-.18,0-.11.28,0,.3,3.2.4,6.35,1,9.58,1.22a73.57,73.57,0,0,0,10-.45c3.33-.28,6.7-.61,10-1.13,1.52-.24,3-.5,4.56-.76a9.43,9.43,0,0,0,3.86-1.35A.21.21,0,0,0,45.37,8.87Z"/></g><path class="cls-5" d="M4.87,5A4.94,4.94,0,0,0,3.33,8.45C3.33,11,5,12.64,7.78,13.5c2,.64,15.31,1.62,30-.77C41,12.22,46.27,9.82,47,9.05c0,0-3.16,2.65-16.93,3.59S8.35,13.7,6.75,11.87a1.55,1.55,0,0,1,.51-2.22L8,9.31s-3.17-.1-3.34-1.46c-.08-.68.94-1.45,1.89-1.71C6.5,6.14,4.1,6.49,4.87,5Z"/><path class="cls-2" d="M10.09,8.63c2.22.06,14.28-.35,19.67-.78a148.94,148.94,0,0,1,15.39-.08c-1.19.08-13.42.68-17.27.94s-15.74,1-18,1.63S7.18,8.54,10.09,8.63Z"/><path class="cls-2" d="M8.89,5.8c1.39-.26,12.49-2,17.88-2s13.42.77,12.65.25-13.51-1.2-17.79-.77S9.32,4.86,7.52,5.2,7.09,6.14,8.89,5.8Z"/><path class="cls-4" d="M10.6,1.7c-1.34.35-5.28,3.18-2.31,2.14,3.17-1.12,8.55-2,17.11-2.06,10-.1,13.85.52,18.47,2,1.86.59,3.76.94,2.23-.09S43.19,1.53,38.57.84,18-.27,10.6,1.7Z"/><path class="cls-4" d="M7.52,6.83c-1.69.5-2.56,1.28.86.85s13.94-.85,20.27-1,18,1.28,17.7.17S37.46,4.26,28.82,4.52C22.57,4.7,13.59,5,7.52,6.83Z"/><path class="cls-4" d="M9.92,11.11c.45.54,10.09,1,18.21.76,9.75-.3,18.22-2.9,18-3.5s-8.47.77-14.54,1.11S8.63,9.57,9.92,11.11Z"/><path class="cls-6" d="M48.49,5c.53.89-.94,3.42-5.05,2.4A88.56,88.56,0,0,0,26.15,4.85c-6-.17-13.08-1.22-19-.5-1.1.13-.68-1.46,3.42-2.65S27.76-.63,41.13,1.1C43.79,1.44,47.38,3.15,48.49,5Z"/><path class="cls-7" d="M7.61,2.64S3.93,5,4.19,7.77,5,13.59,17.53,13.84a156.64,156.64,0,0,0,24.2-1.37,114.43,114.43,0,0,1-21.81,2.74c-5.13.09-15.22.17-16.68-3.68S3.24,4.18,7.61,2.64Z"/><path class="cls-8" d="M17.72.51c-2.88.39.48,1.17,7.68,1.27s17.14,1,20.27,2.9,3.36,2.44,3,.78S46.19,1.12,33.29.32A137.08,137.08,0,0,0,17.72.51Z"/><path class="cls-9" d="M9.9,4.86a5,5,0,0,1-.67-.14A3.8,3.8,0,0,0,9.9,4.86Z"/><path class="cls-9" d="M45.35,4.64c-1.15-.79-2.25-.46-3.53-.37a8.62,8.62,0,0,1-2.46-.41c-.71-.17-1.43-.33-2.16-.43a50.56,50.56,0,0,0-5.07-.33,31.86,31.86,0,0,0-5.35.12c-3.32.38-6.68.32-10,.91-1.36.24-2.73.49-4.12.63a12.14,12.14,0,0,1-2.77.1,19.74,19.74,0,0,0,6.17-.46,43,43,0,0,1,4.4-.55c1.87-.14,3.74-.21,5.61-.38a44.1,44.1,0,0,1,5.14-.23c1.79,0,3.57.18,5.35.28a14.91,14.91,0,0,1,2.39.4,16.66,16.66,0,0,0,2.18.48,7.42,7.42,0,0,0,1.76-.12,4,4,0,0,1,2.4.43A0,0,0,0,0,45.35,4.64Z"/><path class="cls-9" d="M9.06,4.68l.17,0-.17,0S9.05,4.68,9.06,4.68Z"/><path class="cls-9" d="M42.54,1.85C40.93,1.52,39.37,1,37.76.65A18.17,18.17,0,0,0,32.82.48c-1.78.1-3.56.18-5.34.16-1.35,0-2.7-.11-4.05-.15A52.48,52.48,0,0,0,15.5.75,13,13,0,0,0,9.06,2.93s0,0,0,0C11,1.56,13.53,1.14,15.83.88A57.28,57.28,0,0,1,23.58.69c1.3,0,2.6.12,3.9.14,1.71,0,3.41-.07,5.11-.17a19.17,19.17,0,0,1,5.13.15c1.61.33,3.17.86,4.81,1.11C42.57,1.93,42.59,1.86,42.54,1.85Z"/><path class="cls-9" d="M46.53,9.35A23.08,23.08,0,0,1,42.14,11l-4.55,1.16c-3.4.85-6.93.79-10.41,1-1.71.11-3.42.29-5.14.38q-1.23.06-2.46,0c-.88,0-1.76-.16-2.65-.12-1.58.07-3.16.64-4.74.27-1.18-.28-2.06-.94-3.31-.54a0,0,0,0,0,0,0c1.45-.41,2.45.63,3.83.76,1.55.14,3.08-.36,4.62-.38.82,0,1.65.12,2.47.14s1.78,0,2.67-.06c1.73-.1,3.45-.29,5.17-.39a52.05,52.05,0,0,0,10-1c.75-.19,1.49-.46,2.24-.64s1.54-.35,2.31-.53a13.18,13.18,0,0,0,4.39-1.69S46.57,9.33,46.53,9.35Z"/><path class="cls-9" d="M36.44,8.48c-2.4-.87-4.87-.07-7.33-.05a34.7,34.7,0,0,1-3.94-.33,17.41,17.41,0,0,0-3.75,0c-4.5.45-9.28-1-13.42,1.41a0,0,0,1,0,0,.06c4.2-2.31,9.06-.87,13.58-1.32a17.65,17.65,0,0,1,3.56,0c1.24.13,2.47.29,3.71.32a27.71,27.71,0,0,0,3.52-.3,10.73,10.73,0,0,1,4,.25S36.48,8.5,36.44,8.48Z"/><path class="cls-9" d="M47.07,8.48c-1.63-.17-3.25-.33-4.89-.4a7.09,7.09,0,0,0-2,.12,15.43,15.43,0,0,1-2.7.48s0,0,0,0a4.28,4.28,0,0,0,2-.1A10.65,10.65,0,0,1,42,8.28c1.69,0,3.38.14,5.07.27C47.12,8.55,47.11,8.48,47.07,8.48Z"/><path class="cls-4" d="M2.43,8.42a.17.17,0,0,0-.13-.13C1.69,8.18.85,8.11.53,8.75c0,.05,0,.13.09.09A1.9,1.9,0,0,1,2.2,8.66a.19.19,0,0,0,.23-.24Z"/><path class="cls-10" d="M41.79,1.12C36.64,0,23.71-.43,15.76.5S3.31,3.86,2.68,7.25c0,.23-.07.48-.09.74a4.27,4.27,0,0,0-2.54.77.1.1,0,0,0,0,.17c.29.13.27.33.46.5a0,0,0,0,0,.07,0,.14.14,0,0,0,.14,0,3,3,0,0,1,1.86-.13,5.79,5.79,0,0,0,.25,1.5c.31.94.62,3.59,7.79,4.37s18.7-.16,26.49-1.4S49.26,9.54,49.26,6.89,46.93,2.21,41.79,1.12ZM.58,9.17l0,0a.65.65,0,0,0-.27-.36,5,5,0,0,1,2.3-.69c0,.21,0,.43,0,.65A2.44,2.44,0,0,0,.58,9.17ZM46,10.41c-4.24,2.45-13.27,4.12-26.08,4.46s-14.87-1.44-16.1-3a6.07,6.07,0,0,1-.32-5.73C4.89,3.94,7.45,1.27,20.05.49S43.9,1,46.57,3.27,50.25,8,46,10.41Z"/><path class="cls-11" d="M11,2.39c.4,0,.51.34.2.38S10.55,2.43,11,2.39Z"/><path class="cls-1" d="M11,2.36c-.06,0,1-.25,1,.24s-.88.61-1.22.24.63.19.6-.2S11.25,2.36,11,2.36Z"/><path class="cls-9" d="M10.82,2.8C11.29,3.13,12,3,12,2.68s-.34-.4-.34-.4.68.06.69.62c0,.34-1,.43-1.59-.08Z"/><path class="cls-11" d="M12.43,11.1c.4,0,.51.33.2.37S12,11.14,12.43,11.1Z"/><path class="cls-1" d="M12.47,11.06c-.06,0,1-.25,1,.25s-.88.6-1.22.23.63.2.6-.19S12.68,11.06,12.47,11.06Z"/><path class="cls-9" d="M12.25,11.51c.47.32,1.13.18,1.15-.13s-.34-.4-.34-.4.68.06.69.63c0,.34-1,.43-1.59-.08C12.26,11.49,12.25,11.51,12.25,11.51Z"/><path class="cls-11" d="M43.17,2.58c.32,0,.39.28.15.3S42.82,2.6,43.17,2.58Z"/><path class="cls-1" d="M43.21,2.55c-.05,0,.78-.15.8.23s-.71.44-1,.14.48.18.48-.13S43.37,2.56,43.21,2.55Z"/><path class="cls-9" d="M43,2.89c.35.27.88.18.9-.05s-.25-.33-.25-.33.53.08.51.51c0,.27-.76.31-1.23-.12Z"/><path class="cls-11" d="M26.25,5.21c.41,0,.51.33.2.37S25.8,5.25,26.25,5.21Z"/><path class="cls-1" d="M26.3,5.17c-.07,0,1-.25,1,.25s-.87.6-1.22.23.63.2.6-.19S26.5,5.17,26.3,5.17Z"/><path class="cls-9" d="M26.07,5.62c.47.32,1.13.18,1.15-.13s-.34-.4-.34-.4.68.06.69.63c0,.34-1,.43-1.58-.08C26.08,5.6,26.07,5.62,26.07,5.62Z"/><path class="cls-11" d="M22.06,1.74c.2,0,.53.24,0,.24S21.88,1.71,22.06,1.74Z"/><path class="cls-1" d="M21.6,2c.32.17.85,0,.87-.06s-.47-.3-.62-.3c.26-.19,1.09.23.94.43A1,1,0,0,1,21.6,2Z"/><path class="cls-9" d="M21.6,2a1.14,1.14,0,0,0,1.19.07c.15-.11-.32-.41-.53-.45.43.06,1.21.53.81.66C22.37,2.53,21.81,2.43,21.6,2Z"/><path class="cls-11" d="M43,9.27c.2,0,.53.23,0,.23S42.8,9.23,43,9.27Z"/><path class="cls-1" d="M42.51,9.55c.33.17.86,0,.88-.07s-.47-.3-.62-.3c.26-.19,1.09.24.94.43A1,1,0,0,1,42.51,9.55Z"/><path class="cls-9" d="M42.51,9.55a1.14,1.14,0,0,0,1.2.06c.15-.11-.32-.41-.53-.45.42.07,1.21.53.81.67C43.28,10.06,42.73,10,42.51,9.55Z"/><path class="cls-11" d="M45.71,5.93c.17,0,.46.2,0,.2S45.55,5.89,45.71,5.93Z"/><path class="cls-1" d="M45.31,6.16c.28.15.73,0,.75,0s-.4-.26-.53-.26c.22-.16.93.2.81.37A.85.85,0,0,1,45.31,6.16Z"/><path class="cls-9" d="M45.31,6.16a1,1,0,0,0,1,.06c.12-.09-.28-.35-.46-.38.36,0,1,.45.69.56C46,6.6,45.5,6.51,45.31,6.16Z"/><path class="cls-11" d="M8.37,6.66c.17,0,.48.13,0,.2S8.21,6.65,8.37,6.66Z"/><path class="cls-1" d="M8,7c.29.1.73-.07.73-.16s-.43-.2-.56-.18c.2-.19,1,.07.85.25A.83.83,0,0,1,8,7Z"/><path class="cls-9" d="M8,7a1,1,0,0,0,1-.09c.11-.11-.32-.3-.5-.31.36,0,1.08.3.76.46C8.72,7.29,8.24,7.27,8,7Z"/><path class="cls-11" d="M33.24,10.26c.2,0,.53.23,0,.23S33.06,10.22,33.24,10.26Z"/><path class="cls-1" d="M32.78,10.54c.32.17.85,0,.87-.07s-.47-.29-.62-.29c.26-.2,1.09.23.94.42A1,1,0,0,1,32.78,10.54Z"/><path class="cls-9" d="M32.78,10.54A1.12,1.12,0,0,0,34,10.6c.15-.1-.32-.4-.53-.45.43.07,1.21.53.81.67C33.55,11.05,33,10.94,32.78,10.54Z"/><path class="cls-11" d="M17,5.66c-.31-.08-.56.19-.13.25S17.48,5.8,17,5.66Z"/><path class="cls-1" d="M16.51,5.89s.53.29.81,0c.08-.1-.34-.26-.53-.29.21,0,1,.25.79.48A.81.81,0,0,1,16.51,5.89Z"/><path class="cls-9" d="M16.47,5.79c0,.12.35.42.72.41s.43-.16.4-.25-.35-.26-.52-.35c.36.09.86.39.71.6a.75.75,0,0,1-1,.1C16.41,6.05,16.44,5.88,16.47,5.79Z"/><path class="cls-11" d="M23,11.08c-.32-.08-.56.2-.13.25S23.55,11.22,23,11.08Z"/><path class="cls-1" d="M22.58,11.31s.53.29.8,0c.09-.11-.33-.27-.52-.3.2,0,1,.25.78.48S22.78,11.65,22.58,11.31Z"/><path class="cls-9" d="M22.54,11.21c-.05.12.35.43.71.41s.44-.16.41-.25a1.78,1.78,0,0,0-.53-.35c.37.09.86.4.72.6a.76.76,0,0,1-1,.1C22.48,11.47,22.51,11.3,22.54,11.21Z"/><path class="cls-11" d="M32.62,1.4c-.29-.07-.52.19-.12.24S33.11,1.53,32.62,1.4Z"/><path class="cls-1" d="M32.22,1.62s.49.26.74,0c.08-.09-.31-.24-.49-.27.19,0,.89.23.73.45A.73.73,0,0,1,32.22,1.62Z"/><path class="cls-9" d="M32.18,1.52c0,.11.32.4.66.38s.4-.15.37-.23-.32-.24-.48-.32c.34.08.79.36.66.55a.69.69,0,0,1-.9.1C32.12,1.77,32.15,1.6,32.18,1.52Z"/><path class="cls-11" d="M37.66,5.43c-.32-.09-.57.19-.14.25S38.19,5.56,37.66,5.43Z"/><path class="cls-1" d="M37.22,5.66s.53.29.8,0c.09-.1-.34-.26-.53-.29.21,0,1,.25.79.48A.8.8,0,0,1,37.22,5.66Z"/><path class="cls-9" d="M37.17,5.56c0,.11.35.42.72.4s.44-.16.41-.24-.35-.27-.53-.35c.37.08.86.39.72.59a.76.76,0,0,1-1,.11C37.11,5.82,37.14,5.64,37.17,5.56Z"/></g></g></g></svg>